<mxfile host="Electron" agent="Mozilla/5.0 (Macintosh; Intel Mac OS X 10_15_7) AppleWebKit/537.36 (KHTML, like Gecko) draw.io/27.0.9 Chrome/134.0.6998.205 Electron/35.4.0 Safari/537.36" version="27.0.9">
  <diagram name="Page-1" id="g9H6dbtvx4PHSXspcuRk">
    <mxGraphModel dx="976" dy="660" grid="1" gridSize="10" guides="1" tooltips="1" connect="1" arrows="1" fold="1" page="1" pageScale="1" pageWidth="827" pageHeight="1169" math="0" shadow="0">
      <root>
        <mxCell id="0" />
        <mxCell id="1" parent="0" />
        <mxCell id="-1AktqaqkDDOZ0wfCmjb-14" value="" style="edgeStyle=orthogonalEdgeStyle;rounded=0;orthogonalLoop=1;jettySize=auto;html=1;" edge="1" parent="1" source="-1AktqaqkDDOZ0wfCmjb-1" target="-1AktqaqkDDOZ0wfCmjb-3">
          <mxGeometry relative="1" as="geometry" />
        </mxCell>
        <mxCell id="-1AktqaqkDDOZ0wfCmjb-1" value="Checkout code" style="rounded=0;whiteSpace=wrap;html=1;" vertex="1" parent="1">
          <mxGeometry x="10" y="130" width="120" height="60" as="geometry" />
        </mxCell>
        <mxCell id="-1AktqaqkDDOZ0wfCmjb-23" value="" style="edgeStyle=orthogonalEdgeStyle;rounded=0;orthogonalLoop=1;jettySize=auto;html=1;" edge="1" parent="1" source="-1AktqaqkDDOZ0wfCmjb-3" target="-1AktqaqkDDOZ0wfCmjb-4">
          <mxGeometry relative="1" as="geometry" />
        </mxCell>
        <mxCell id="-1AktqaqkDDOZ0wfCmjb-3" value="Setup .NET" style="rounded=0;whiteSpace=wrap;html=1;" vertex="1" parent="1">
          <mxGeometry x="10" y="230" width="120" height="60" as="geometry" />
        </mxCell>
        <mxCell id="-1AktqaqkDDOZ0wfCmjb-25" value="" style="edgeStyle=orthogonalEdgeStyle;rounded=0;orthogonalLoop=1;jettySize=auto;html=1;" edge="1" parent="1" source="-1AktqaqkDDOZ0wfCmjb-4" target="-1AktqaqkDDOZ0wfCmjb-5">
          <mxGeometry relative="1" as="geometry" />
        </mxCell>
        <mxCell id="-1AktqaqkDDOZ0wfCmjb-4" value="&lt;div&gt;&lt;span style=&quot;background-color: transparent;&quot;&gt;&lt;font style=&quot;&quot;&gt;Restore dependencies&lt;/font&gt;&lt;/span&gt;&lt;/div&gt;&lt;div&gt;&lt;span style=&quot;background-color: transparent; color: light-dark(rgb(0, 0, 0), rgb(255, 255, 255));&quot;&gt;&lt;font style=&quot;font-size: 10px;&quot;&gt;run &quot;dotnet restore&quot;&lt;/font&gt;&lt;/span&gt;&lt;/div&gt;" style="rounded=0;whiteSpace=wrap;html=1;" vertex="1" parent="1">
          <mxGeometry x="10" y="330" width="120" height="60" as="geometry" />
        </mxCell>
        <mxCell id="-1AktqaqkDDOZ0wfCmjb-26" value="" style="edgeStyle=orthogonalEdgeStyle;rounded=0;orthogonalLoop=1;jettySize=auto;html=1;" edge="1" parent="1" source="-1AktqaqkDDOZ0wfCmjb-5" target="-1AktqaqkDDOZ0wfCmjb-7">
          <mxGeometry relative="1" as="geometry" />
        </mxCell>
        <mxCell id="-1AktqaqkDDOZ0wfCmjb-5" value="&lt;div&gt;Build application&lt;/div&gt;&lt;font style=&quot;font-size: 9px;&quot;&gt;run &quot;dotnet build --no-restore --warnaserror&quot;&lt;/font&gt;" style="rounded=0;whiteSpace=wrap;html=1;" vertex="1" parent="1">
          <mxGeometry x="170" y="330" width="120" height="60" as="geometry" />
        </mxCell>
        <mxCell id="-1AktqaqkDDOZ0wfCmjb-27" value="" style="edgeStyle=orthogonalEdgeStyle;rounded=0;orthogonalLoop=1;jettySize=auto;html=1;" edge="1" parent="1" source="-1AktqaqkDDOZ0wfCmjb-7" target="-1AktqaqkDDOZ0wfCmjb-8">
          <mxGeometry relative="1" as="geometry" />
        </mxCell>
        <mxCell id="-1AktqaqkDDOZ0wfCmjb-7" value="Run Docker API-Test-Containers" style="rounded=0;whiteSpace=wrap;html=1;" vertex="1" parent="1">
          <mxGeometry x="170" y="230" width="120" height="60" as="geometry" />
        </mxCell>
        <mxCell id="-1AktqaqkDDOZ0wfCmjb-28" value="" style="edgeStyle=orthogonalEdgeStyle;rounded=0;orthogonalLoop=1;jettySize=auto;html=1;" edge="1" parent="1" source="-1AktqaqkDDOZ0wfCmjb-8" target="-1AktqaqkDDOZ0wfCmjb-10">
          <mxGeometry relative="1" as="geometry" />
        </mxCell>
        <mxCell id="-1AktqaqkDDOZ0wfCmjb-8" value="&lt;div&gt;Start Docker Compose Services&lt;/div&gt;&lt;font style=&quot;font-size: 10px;&quot;&gt;run &quot;docker compose up -d&quot;&lt;/font&gt;" style="rounded=0;whiteSpace=wrap;html=1;" vertex="1" parent="1">
          <mxGeometry x="170" y="130" width="120" height="60" as="geometry" />
        </mxCell>
        <mxCell id="-1AktqaqkDDOZ0wfCmjb-29" value="" style="edgeStyle=orthogonalEdgeStyle;rounded=0;orthogonalLoop=1;jettySize=auto;html=1;" edge="1" parent="1" source="-1AktqaqkDDOZ0wfCmjb-10" target="-1AktqaqkDDOZ0wfCmjb-11">
          <mxGeometry relative="1" as="geometry" />
        </mxCell>
        <mxCell id="-1AktqaqkDDOZ0wfCmjb-10" value="Wait for Services to be Ready" style="rounded=0;whiteSpace=wrap;html=1;" vertex="1" parent="1">
          <mxGeometry x="330" y="130" width="120" height="60" as="geometry" />
        </mxCell>
        <mxCell id="-1AktqaqkDDOZ0wfCmjb-32" value="" style="edgeStyle=orthogonalEdgeStyle;rounded=0;orthogonalLoop=1;jettySize=auto;html=1;" edge="1" parent="1" source="-1AktqaqkDDOZ0wfCmjb-11" target="-1AktqaqkDDOZ0wfCmjb-12">
          <mxGeometry relative="1" as="geometry" />
        </mxCell>
        <mxCell id="-1AktqaqkDDOZ0wfCmjb-11" value="Install Playwright" style="rounded=0;whiteSpace=wrap;html=1;" vertex="1" parent="1">
          <mxGeometry x="330" y="230" width="120" height="60" as="geometry" />
        </mxCell>
        <mxCell id="-1AktqaqkDDOZ0wfCmjb-33" style="edgeStyle=orthogonalEdgeStyle;rounded=0;orthogonalLoop=1;jettySize=auto;html=1;entryX=0.5;entryY=1;entryDx=0;entryDy=0;" edge="1" parent="1" source="-1AktqaqkDDOZ0wfCmjb-12" target="-1AktqaqkDDOZ0wfCmjb-13">
          <mxGeometry relative="1" as="geometry" />
        </mxCell>
        <mxCell id="-1AktqaqkDDOZ0wfCmjb-12" value="&lt;font&gt;Test&lt;/font&gt;&lt;div&gt;&lt;font style=&quot;font-size: 10px;&quot;&gt;run &quot;&amp;nbsp;dotnet test --no-build --verbosity normal&quot;&lt;/font&gt;&lt;/div&gt;" style="rounded=0;whiteSpace=wrap;html=1;" vertex="1" parent="1">
          <mxGeometry x="330" y="330" width="120" height="60" as="geometry" />
        </mxCell>
        <mxCell id="-1AktqaqkDDOZ0wfCmjb-13" value="Stop Docker Compose Services&lt;div&gt;&lt;font style=&quot;font-size: 10px;&quot;&gt;docker compose down&lt;/font&gt;&lt;/div&gt;" style="rounded=0;whiteSpace=wrap;html=1;" vertex="1" parent="1">
          <mxGeometry x="490" y="230" width="120" height="60" as="geometry" />
        </mxCell>
      </root>
    </mxGraphModel>
  </diagram>
</mxfile>
